<?xml version="1.0" encoding="UTF-8" standalone="no"?>
<!-- Created with Inkscape (http://www.inkscape.org/) -->

<svg
   xmlns:dc="http://purl.org/dc/elements/1.1/"
   xmlns:cc="http://creativecommons.org/ns#"
   xmlns:rdf="http://www.w3.org/1999/02/22-rdf-syntax-ns#"
   xmlns:svg="http://www.w3.org/2000/svg"
   xmlns="http://www.w3.org/2000/svg"
   xmlns:sodipodi="http://sodipodi.sourceforge.net/DTD/sodipodi-0.dtd"
   xmlns:inkscape="http://www.inkscape.org/namespaces/inkscape"
   version="1.1"
   id="svg2"
   xml:space="preserve"
   width="2560"
   height="1365.3333"
   viewBox="0 0 2560 1365.3333"
   sodipodi:docname="1638392286-Pb-Sn-OC-2021-nist-annotation-v1.svg"
   inkscape:version="0.92.1 r15371"><metadata
     id="metadata8"><rdf:RDF><cc:Work
         rdf:about=""><dc:format>image/svg+xml</dc:format><dc:type
           rdf:resource="http://purl.org/dc/dcmitype/StillImage" /><dc:title></dc:title></cc:Work></rdf:RDF></metadata><defs
     id="defs6" /><sodipodi:namedview
     pagecolor="#ffffff"
     bordercolor="#666666"
     borderopacity="1"
     objecttolerance="10"
     gridtolerance="10"
     guidetolerance="10"
     inkscape:pageopacity="0"
     inkscape:pageshadow="2"
     inkscape:window-width="1920"
     inkscape:window-height="1080"
     id="namedview4"
     showgrid="false"
     inkscape:zoom="0.77442098"
     inkscape:cx="974.90137"
     inkscape:cy="793.89444"
     inkscape:window-x="-1"
     inkscape:window-y="-1"
     inkscape:window-maximized="1"
     inkscape:current-layer="g10" /><g
     id="g10"
     inkscape:groupmode="layer"
     inkscape:label="1638392286-Pb-Sn-OC-2021-nist-annotation-v1"
     transform="matrix(1.3333333,0,0,-1.3333333,0,1365.3333)"><path
       inkscape:connector-curvature="0"
       id="path14"
       style="fill:#ffffff;fill-opacity:1;fill-rule:nonzero;stroke:none"
       d="M -0.82231667,-6.5785331 H 1919.1777 V 1017.4215 H -0.82231667 Z" /><g
       transform="matrix(1,0,0,-1,537.62877,858.57576)"
       id="g16"><path
         inkscape:connector-curvature="0"
         id="path18"
         style="fill:none;stroke:#000000;stroke-width:1;stroke-linecap:butt;stroke-linejoin:miter;stroke-miterlimit:10;stroke-dasharray:none;stroke-opacity:1"
         d="m 101.074,426.758 h 8.789" /></g><g
       transform="matrix(1,0,0,-1,537.62877,858.57576)"
       id="g20"><path
         inkscape:connector-curvature="0"
         id="path22"
         style="fill:none;stroke:#000000;stroke-width:1;stroke-linecap:butt;stroke-linejoin:miter;stroke-miterlimit:10;stroke-dasharray:none;stroke-opacity:1"
         d="m 563.965,426.758 h -9.277" /></g><text
       id="text26"
       style="font-variant:normal;font-weight:normal;font-size:21.33300781px;font-family:'Liberation Sans';-inkscape-font-specification:LiberationSans;writing-mode:lr-tb;fill:#000000;fill-opacity:1;fill-rule:nonzero;stroke:none"
       transform="scale(1,-1)"
       x="591.53082"
       y="-423.9628"><tspan
         id="tspan24"
         sodipodi:role="line"
         y="-423.9628"
         x="591.53082 603.19995 614.86914">200</tspan></text>
<g
       transform="matrix(1,0,0,-1,537.62877,858.57576)"
       id="g28"><path
         inkscape:connector-curvature="0"
         id="path30"
         style="fill:none;stroke:#000000;stroke-width:1;stroke-linecap:butt;stroke-linejoin:miter;stroke-miterlimit:10;stroke-dasharray:none;stroke-opacity:1"
         d="m 101.074,387.695 h 8.789" /></g><g
       transform="matrix(1,0,0,-1,537.62877,858.57576)"
       id="g32"><path
         inkscape:connector-curvature="0"
         id="path34"
         style="fill:none;stroke:#000000;stroke-width:1;stroke-linecap:butt;stroke-linejoin:miter;stroke-miterlimit:10;stroke-dasharray:none;stroke-opacity:1"
         d="m 563.965,387.695 h -9.277" /></g><text
       id="text38"
       style="font-variant:normal;font-weight:normal;font-size:21.33300781px;font-family:'Liberation Sans';-inkscape-font-specification:LiberationSans;writing-mode:lr-tb;fill:#000000;fill-opacity:1;fill-rule:nonzero;stroke:none"
       transform="scale(1,-1)"
       x="591.53082"
       y="-462.91202"><tspan
         id="tspan36"
         sodipodi:role="line"
         y="-462.91202"
         x="591.53082 603.19995 614.86914">250</tspan></text>
<g
       transform="matrix(1,0,0,-1,537.62877,858.57576)"
       id="g40"><path
         inkscape:connector-curvature="0"
         id="path42"
         style="fill:none;stroke:#000000;stroke-width:1;stroke-linecap:butt;stroke-linejoin:miter;stroke-miterlimit:10;stroke-dasharray:none;stroke-opacity:1"
         d="m 101.074,348.633 h 8.789" /></g><g
       transform="matrix(1,0,0,-1,537.62877,858.57576)"
       id="g44"><path
         inkscape:connector-curvature="0"
         id="path46"
         style="fill:none;stroke:#000000;stroke-width:1;stroke-linecap:butt;stroke-linejoin:miter;stroke-miterlimit:10;stroke-dasharray:none;stroke-opacity:1"
         d="m 563.965,348.633 h -9.277" /></g><text
       id="text50"
       style="font-variant:normal;font-weight:normal;font-size:21.33300781px;font-family:'Liberation Sans';-inkscape-font-specification:LiberationSans;writing-mode:lr-tb;fill:#000000;fill-opacity:1;fill-rule:nonzero;stroke:none"
       transform="scale(1,-1)"
       x="591.53082"
       y="-501.91202"><tspan
         id="tspan48"
         sodipodi:role="line"
         y="-501.91202"
         x="591.53082 603.19995 614.86914">300</tspan></text>
<g
       transform="matrix(1,0,0,-1,537.62877,858.57576)"
       id="g52"><path
         inkscape:connector-curvature="0"
         id="path54"
         style="fill:none;stroke:#000000;stroke-width:1;stroke-linecap:butt;stroke-linejoin:miter;stroke-miterlimit:10;stroke-dasharray:none;stroke-opacity:1"
         d="m 101.074,309.57 h 8.789" /></g><g
       transform="matrix(1,0,0,-1,537.62877,858.57576)"
       id="g56"><path
         inkscape:connector-curvature="0"
         id="path58"
         style="fill:none;stroke:#000000;stroke-width:1;stroke-linecap:butt;stroke-linejoin:miter;stroke-miterlimit:10;stroke-dasharray:none;stroke-opacity:1"
         d="m 563.965,309.57 h -9.277" /></g><text
       id="text62"
       style="font-variant:normal;font-weight:normal;font-size:21.33300781px;font-family:'Liberation Sans';-inkscape-font-specification:LiberationSans;writing-mode:lr-tb;fill:#000000;fill-opacity:1;fill-rule:nonzero;stroke:none"
       transform="scale(1,-1)"
       x="591.53082"
       y="-540.86511"><tspan
         id="tspan60"
         sodipodi:role="line"
         y="-540.86511"
         x="591.53082 603.19995 614.86914">350</tspan></text>
<g
       transform="matrix(1,0,0,-1,537.62877,858.57576)"
       id="g64"><path
         inkscape:connector-curvature="0"
         id="path66"
         style="fill:none;stroke:#000000;stroke-width:1;stroke-linecap:butt;stroke-linejoin:miter;stroke-miterlimit:10;stroke-dasharray:none;stroke-opacity:1"
         d="m 101.074,270.508 h 8.789" /></g><g
       transform="matrix(1,0,0,-1,537.62877,858.57576)"
       id="g68"><path
         inkscape:connector-curvature="0"
         id="path70"
         style="fill:none;stroke:#000000;stroke-width:1;stroke-linecap:butt;stroke-linejoin:miter;stroke-miterlimit:10;stroke-dasharray:none;stroke-opacity:1"
         d="m 563.965,270.508 h -9.277" /></g><text
       id="text74"
       style="font-variant:normal;font-weight:normal;font-size:21.33300781px;font-family:'Liberation Sans';-inkscape-font-specification:LiberationSans;writing-mode:lr-tb;fill:#000000;fill-opacity:1;fill-rule:nonzero;stroke:none"
       transform="scale(1,-1)"
       x="591.53082"
       y="-579.86511"><tspan
         id="tspan72"
         sodipodi:role="line"
         y="-579.86511"
         x="591.53082 603.19995 614.86914">400</tspan></text>
<g
       transform="matrix(1,0,0,-1,537.62877,858.57576)"
       id="g76"><path
         inkscape:connector-curvature="0"
         id="path78"
         style="fill:none;stroke:#000000;stroke-width:1;stroke-linecap:butt;stroke-linejoin:miter;stroke-miterlimit:10;stroke-dasharray:none;stroke-opacity:1"
         d="m 101.074,231.934 h 8.789" /></g><g
       transform="matrix(1,0,0,-1,537.62877,858.57576)"
       id="g80"><path
         inkscape:connector-curvature="0"
         id="path82"
         style="fill:none;stroke:#000000;stroke-width:1;stroke-linecap:butt;stroke-linejoin:miter;stroke-miterlimit:10;stroke-dasharray:none;stroke-opacity:1"
         d="m 563.965,231.934 h -9.277" /></g><text
       id="text86"
       style="font-variant:normal;font-weight:normal;font-size:21.33300781px;font-family:'Liberation Sans';-inkscape-font-specification:LiberationSans;writing-mode:lr-tb;fill:#000000;fill-opacity:1;fill-rule:nonzero;stroke:none"
       transform="scale(1,-1)"
       x="591.53082"
       y="-618.81433"><tspan
         id="tspan84"
         sodipodi:role="line"
         y="-618.81433"
         x="591.53082 603.19995 614.86914">450</tspan></text>
<g
       transform="matrix(1,0,0,-1,537.62877,858.57576)"
       id="g88"><path
         inkscape:connector-curvature="0"
         id="path90"
         style="fill:none;stroke:#000000;stroke-width:1;stroke-linecap:butt;stroke-linejoin:miter;stroke-miterlimit:10;stroke-dasharray:none;stroke-opacity:1"
         d="m 101.074,192.871 h 8.789" /></g><g
       transform="matrix(1,0,0,-1,537.62877,858.57576)"
       id="g92"><path
         inkscape:connector-curvature="0"
         id="path94"
         style="fill:none;stroke:#000000;stroke-width:1;stroke-linecap:butt;stroke-linejoin:miter;stroke-miterlimit:10;stroke-dasharray:none;stroke-opacity:1"
         d="m 563.965,192.871 h -9.277" /></g><text
       id="text98"
       style="font-variant:normal;font-weight:normal;font-size:21.33300781px;font-family:'Liberation Sans';-inkscape-font-specification:LiberationSans;writing-mode:lr-tb;fill:#000000;fill-opacity:1;fill-rule:nonzero;stroke:none"
       transform="scale(1,-1)"
       x="591.53082"
       y="-657.81433"><tspan
         id="tspan96"
         sodipodi:role="line"
         y="-657.81433"
         x="591.53082 603.19995 614.86914">500</tspan></text>
<g
       transform="matrix(1,0,0,-1,537.62877,858.57576)"
       id="g100"><path
         inkscape:connector-curvature="0"
         id="path102"
         style="fill:none;stroke:#000000;stroke-width:1;stroke-linecap:butt;stroke-linejoin:miter;stroke-miterlimit:10;stroke-dasharray:none;stroke-opacity:1"
         d="m 101.074,153.809 h 8.789" /></g><g
       transform="matrix(1,0,0,-1,537.62877,858.57576)"
       id="g104"><path
         inkscape:connector-curvature="0"
         id="path106"
         style="fill:none;stroke:#000000;stroke-width:1;stroke-linecap:butt;stroke-linejoin:miter;stroke-miterlimit:10;stroke-dasharray:none;stroke-opacity:1"
         d="m 563.965,153.809 h -9.277" /></g><text
       id="text110"
       style="font-variant:normal;font-weight:normal;font-size:21.33300781px;font-family:'Liberation Sans';-inkscape-font-specification:LiberationSans;writing-mode:lr-tb;fill:#000000;fill-opacity:1;fill-rule:nonzero;stroke:none"
       transform="scale(1,-1)"
       x="591.53082"
       y="-696.76355"><tspan
         id="tspan108"
         sodipodi:role="line"
         y="-696.76355"
         x="591.53082 603.19995 614.86914">550</tspan></text>
<g
       transform="matrix(1,0,0,-1,537.62877,858.57576)"
       id="g112"><path
         inkscape:connector-curvature="0"
         id="path114"
         style="fill:none;stroke:#000000;stroke-width:1;stroke-linecap:butt;stroke-linejoin:miter;stroke-miterlimit:10;stroke-dasharray:none;stroke-opacity:1"
         d="m 101.074,114.746 h 8.789" /></g><g
       transform="matrix(1,0,0,-1,537.62877,858.57576)"
       id="g116"><path
         inkscape:connector-curvature="0"
         id="path118"
         style="fill:none;stroke:#000000;stroke-width:1;stroke-linecap:butt;stroke-linejoin:miter;stroke-miterlimit:10;stroke-dasharray:none;stroke-opacity:1"
         d="m 563.965,114.746 h -9.277" /></g><text
       id="text122"
       style="font-variant:normal;font-weight:normal;font-size:21.33300781px;font-family:'Liberation Sans';-inkscape-font-specification:LiberationSans;writing-mode:lr-tb;fill:#000000;fill-opacity:1;fill-rule:nonzero;stroke:none"
       transform="scale(1,-1)"
       x="591.53082"
       y="-735.76355"><tspan
         id="tspan120"
         sodipodi:role="line"
         y="-735.76355"
         x="591.53082 603.19995 614.86914">600</tspan></text>
<g
       transform="matrix(1,0,0,-1,537.62877,858.57576)"
       id="g124"><path
         inkscape:connector-curvature="0"
         id="path126"
         style="fill:none;stroke:#000000;stroke-width:1;stroke-linecap:butt;stroke-linejoin:miter;stroke-miterlimit:10;stroke-dasharray:none;stroke-opacity:1"
         d="m 101.074,75.684 h 8.789" /></g><g
       transform="matrix(1,0,0,-1,537.62877,858.57576)"
       id="g128"><path
         inkscape:connector-curvature="0"
         id="path130"
         style="fill:none;stroke:#000000;stroke-width:1;stroke-linecap:butt;stroke-linejoin:miter;stroke-miterlimit:10;stroke-dasharray:none;stroke-opacity:1"
         d="m 563.965,75.684 h -9.277" /></g><text
       id="text134"
       style="font-variant:normal;font-weight:normal;font-size:21.33300781px;font-family:'Liberation Sans';-inkscape-font-specification:LiberationSans;writing-mode:lr-tb;fill:#000000;fill-opacity:1;fill-rule:nonzero;stroke:none"
       transform="scale(1,-1)"
       x="591.53082"
       y="-774.71277"><tspan
         id="tspan132"
         sodipodi:role="line"
         y="-774.71277"
         x="591.53082 603.19995 614.86914">650</tspan></text>
<g
       transform="matrix(1,0,0,-1,537.62877,858.57576)"
       id="g136"><path
         inkscape:connector-curvature="0"
         id="path138"
         style="fill:none;stroke:#000000;stroke-width:1;stroke-linecap:butt;stroke-linejoin:miter;stroke-miterlimit:10;stroke-dasharray:none;stroke-opacity:1"
         d="M 101.074,426.758 V 417.48" /></g><g
       transform="matrix(1,0,0,-1,537.62877,858.57576)"
       id="g140"><path
         inkscape:connector-curvature="0"
         id="path142"
         style="fill:none;stroke:#000000;stroke-width:1;stroke-linecap:butt;stroke-linejoin:miter;stroke-miterlimit:10;stroke-dasharray:none;stroke-opacity:1"
         d="m 101.074,75.684 v 9.277" /></g><text
       id="text146"
       style="font-variant:normal;font-weight:normal;font-size:21.33300781px;font-family:'Liberation Sans';-inkscape-font-specification:LiberationSans;writing-mode:lr-tb;fill:#000000;fill-opacity:1;fill-rule:nonzero;stroke:none"
       transform="scale(1,-1)"
       x="635.6441"
       y="-401.01358"><tspan
         id="tspan144"
         y="-401.01358"
         x="635.6441">0</tspan></text>
<g
       transform="matrix(1,0,0,-1,537.62877,858.57576)"
       id="g148"><path
         inkscape:connector-curvature="0"
         id="path150"
         style="fill:none;stroke:#000000;stroke-width:1;stroke-linecap:butt;stroke-linejoin:miter;stroke-miterlimit:10;stroke-dasharray:none;stroke-opacity:1"
         d="M 147.461,426.758 V 417.48" /></g><g
       transform="matrix(1,0,0,-1,537.62877,858.57576)"
       id="g152"><path
         inkscape:connector-curvature="0"
         id="path154"
         style="fill:none;stroke:#000000;stroke-width:1;stroke-linecap:butt;stroke-linejoin:miter;stroke-miterlimit:10;stroke-dasharray:none;stroke-opacity:1"
         d="m 147.461,75.684 v 9.277" /></g><text
       id="text158"
       style="font-variant:normal;font-weight:normal;font-size:21.33300781px;font-family:'Liberation Sans';-inkscape-font-specification:LiberationSans;writing-mode:lr-tb;fill:#000000;fill-opacity:1;fill-rule:nonzero;stroke:none"
       transform="scale(1,-1)"
       x="676.10504"
       y="-401.01358"><tspan
         id="tspan156"
         sodipodi:role="line"
         y="-401.01358"
         x="676.10504 687.77417">10</tspan></text>
<g
       transform="matrix(1,0,0,-1,537.62877,858.57576)"
       id="g160"><path
         inkscape:connector-curvature="0"
         id="path162"
         style="fill:none;stroke:#000000;stroke-width:1;stroke-linecap:butt;stroke-linejoin:miter;stroke-miterlimit:10;stroke-dasharray:none;stroke-opacity:1"
         d="M 193.359,426.758 V 417.48" /></g><g
       transform="matrix(1,0,0,-1,537.62877,858.57576)"
       id="g164"><path
         inkscape:connector-curvature="0"
         id="path166"
         style="fill:none;stroke:#000000;stroke-width:1;stroke-linecap:butt;stroke-linejoin:miter;stroke-miterlimit:10;stroke-dasharray:none;stroke-opacity:1"
         d="m 193.359,75.684 v 9.277" /></g><text
       id="text170"
       style="font-variant:normal;font-weight:normal;font-size:21.33300781px;font-family:'Liberation Sans';-inkscape-font-specification:LiberationSans;writing-mode:lr-tb;fill:#000000;fill-opacity:1;fill-rule:nonzero;stroke:none"
       transform="scale(1,-1)"
       x="722.40582"
       y="-401.01358"><tspan
         id="tspan168"
         sodipodi:role="line"
         y="-401.01358"
         x="722.40582 734.07495">20</tspan></text>
<g
       transform="matrix(1,0,0,-1,537.62877,858.57576)"
       id="g172"><path
         inkscape:connector-curvature="0"
         id="path174"
         style="fill:none;stroke:#000000;stroke-width:1;stroke-linecap:butt;stroke-linejoin:miter;stroke-miterlimit:10;stroke-dasharray:none;stroke-opacity:1"
         d="M 239.746,426.758 V 417.48" /></g><g
       transform="matrix(1,0,0,-1,537.62877,858.57576)"
       id="g176"><path
         inkscape:connector-curvature="0"
         id="path178"
         style="fill:none;stroke:#000000;stroke-width:1;stroke-linecap:butt;stroke-linejoin:miter;stroke-miterlimit:10;stroke-dasharray:none;stroke-opacity:1"
         d="m 239.746,75.684 v 9.277" /></g><text
       id="text182"
       style="font-variant:normal;font-weight:normal;font-size:21.33300781px;font-family:'Liberation Sans';-inkscape-font-specification:LiberationSans;writing-mode:lr-tb;fill:#000000;fill-opacity:1;fill-rule:nonzero;stroke:none"
       transform="scale(1,-1)"
       x="768.7066"
       y="-401.01358"><tspan
         id="tspan180"
         sodipodi:role="line"
         y="-401.01358"
         x="768.7066 780.37573">30</tspan></text>
<g
       transform="matrix(1,0,0,-1,537.62877,858.57576)"
       id="g184"><path
         inkscape:connector-curvature="0"
         id="path186"
         style="fill:none;stroke:#000000;stroke-width:1;stroke-linecap:butt;stroke-linejoin:miter;stroke-miterlimit:10;stroke-dasharray:none;stroke-opacity:1"
         d="M 286.133,426.758 V 417.48" /></g><g
       transform="matrix(1,0,0,-1,537.62877,858.57576)"
       id="g188"><path
         inkscape:connector-curvature="0"
         id="path190"
         style="fill:none;stroke:#000000;stroke-width:1;stroke-linecap:butt;stroke-linejoin:miter;stroke-miterlimit:10;stroke-dasharray:none;stroke-opacity:1"
         d="m 286.133,75.684 v 9.277" /></g><text
       id="text194"
       style="font-variant:normal;font-weight:normal;font-size:21.33300781px;font-family:'Liberation Sans';-inkscape-font-specification:LiberationSans;writing-mode:lr-tb;fill:#000000;fill-opacity:1;fill-rule:nonzero;stroke:none"
       transform="scale(1,-1)"
       x="815.00739"
       y="-401.01358"><tspan
         id="tspan192"
         sodipodi:role="line"
         y="-401.01358"
         x="815.00739 826.67651">40</tspan></text>
<g
       transform="matrix(1,0,0,-1,537.62877,858.57576)"
       id="g196"><path
         inkscape:connector-curvature="0"
         id="path198"
         style="fill:none;stroke:#000000;stroke-width:1;stroke-linecap:butt;stroke-linejoin:miter;stroke-miterlimit:10;stroke-dasharray:none;stroke-opacity:1"
         d="M 332.52,426.758 V 417.48" /></g><g
       transform="matrix(1,0,0,-1,537.62877,858.57576)"
       id="g200"><path
         inkscape:connector-curvature="0"
         id="path202"
         style="fill:none;stroke:#000000;stroke-width:1;stroke-linecap:butt;stroke-linejoin:miter;stroke-miterlimit:10;stroke-dasharray:none;stroke-opacity:1"
         d="m 332.52,75.684 v 9.277" /></g><text
       id="text206"
       style="font-variant:normal;font-weight:normal;font-size:21.33300781px;font-family:'Liberation Sans';-inkscape-font-specification:LiberationSans;writing-mode:lr-tb;fill:#000000;fill-opacity:1;fill-rule:nonzero;stroke:none"
       transform="scale(1,-1)"
       x="861.30817"
       y="-401.01358"><tspan
         id="tspan204"
         sodipodi:role="line"
         y="-401.01358"
         x="861.30817 872.97729">50</tspan></text>
<g
       transform="matrix(1,0,0,-1,537.62877,858.57576)"
       id="g208"><path
         inkscape:connector-curvature="0"
         id="path210"
         style="fill:none;stroke:#000000;stroke-width:1;stroke-linecap:butt;stroke-linejoin:miter;stroke-miterlimit:10;stroke-dasharray:none;stroke-opacity:1"
         d="M 378.906,426.758 V 417.48" /></g><g
       transform="matrix(1,0,0,-1,537.62877,858.57576)"
       id="g212"><path
         inkscape:connector-curvature="0"
         id="path214"
         style="fill:none;stroke:#000000;stroke-width:1;stroke-linecap:butt;stroke-linejoin:miter;stroke-miterlimit:10;stroke-dasharray:none;stroke-opacity:1"
         d="m 378.906,75.684 v 9.277" /></g><text
       id="text218"
       style="font-variant:normal;font-weight:normal;font-size:21.33300781px;font-family:'Liberation Sans';-inkscape-font-specification:LiberationSans;writing-mode:lr-tb;fill:#000000;fill-opacity:1;fill-rule:nonzero;stroke:none"
       transform="scale(1,-1)"
       x="907.60504"
       y="-401.01358"><tspan
         id="tspan216"
         sodipodi:role="line"
         y="-401.01358"
         x="907.60504 919.27417">60</tspan></text>
<g
       transform="matrix(1,0,0,-1,537.62877,858.57576)"
       id="g220"><path
         inkscape:connector-curvature="0"
         id="path222"
         style="fill:none;stroke:#000000;stroke-width:1;stroke-linecap:butt;stroke-linejoin:miter;stroke-miterlimit:10;stroke-dasharray:none;stroke-opacity:1"
         d="M 425.293,426.758 V 417.48" /></g><g
       transform="matrix(1,0,0,-1,537.62877,858.57576)"
       id="g224"><path
         inkscape:connector-curvature="0"
         id="path226"
         style="fill:none;stroke:#000000;stroke-width:1;stroke-linecap:butt;stroke-linejoin:miter;stroke-miterlimit:10;stroke-dasharray:none;stroke-opacity:1"
         d="m 425.293,75.684 v 9.277" /></g><text
       id="text230"
       style="font-variant:normal;font-weight:normal;font-size:21.33300781px;font-family:'Liberation Sans';-inkscape-font-specification:LiberationSans;writing-mode:lr-tb;fill:#000000;fill-opacity:1;fill-rule:nonzero;stroke:none"
       transform="scale(1,-1)"
       x="953.90582"
       y="-401.01358"><tspan
         id="tspan228"
         sodipodi:role="line"
         y="-401.01358"
         x="953.90582 965.57495">70</tspan></text>
<g
       transform="matrix(1,0,0,-1,537.62877,858.57576)"
       id="g232"><path
         inkscape:connector-curvature="0"
         id="path234"
         style="fill:none;stroke:#000000;stroke-width:1;stroke-linecap:butt;stroke-linejoin:miter;stroke-miterlimit:10;stroke-dasharray:none;stroke-opacity:1"
         d="M 471.191,426.758 V 417.48" /></g><g
       transform="matrix(1,0,0,-1,537.62877,858.57576)"
       id="g236"><path
         inkscape:connector-curvature="0"
         id="path238"
         style="fill:none;stroke:#000000;stroke-width:1;stroke-linecap:butt;stroke-linejoin:miter;stroke-miterlimit:10;stroke-dasharray:none;stroke-opacity:1"
         d="m 471.191,75.684 v 9.277" /></g><text
       id="text242"
       style="font-variant:normal;font-weight:normal;font-size:21.33300781px;font-family:'Liberation Sans';-inkscape-font-specification:LiberationSans;writing-mode:lr-tb;fill:#000000;fill-opacity:1;fill-rule:nonzero;stroke:none"
       transform="scale(1,-1)"
       x="1000.2066"
       y="-401.01358"><tspan
         id="tspan240"
         sodipodi:role="line"
         y="-401.01358"
         x="1000.2066 1011.8757">80</tspan></text>
<g
       transform="matrix(1,0,0,-1,537.62877,858.57576)"
       id="g244"><path
         inkscape:connector-curvature="0"
         id="path246"
         style="fill:none;stroke:#000000;stroke-width:1;stroke-linecap:butt;stroke-linejoin:miter;stroke-miterlimit:10;stroke-dasharray:none;stroke-opacity:1"
         d="M 517.578,426.758 V 417.48" /></g><g
       transform="matrix(1,0,0,-1,537.62877,858.57576)"
       id="g248"><path
         inkscape:connector-curvature="0"
         id="path250"
         style="fill:none;stroke:#000000;stroke-width:1;stroke-linecap:butt;stroke-linejoin:miter;stroke-miterlimit:10;stroke-dasharray:none;stroke-opacity:1"
         d="m 517.578,75.684 v 9.277" /></g><text
       id="text254"
       style="font-variant:normal;font-weight:normal;font-size:21.33300781px;font-family:'Liberation Sans';-inkscape-font-specification:LiberationSans;writing-mode:lr-tb;fill:#000000;fill-opacity:1;fill-rule:nonzero;stroke:none"
       transform="scale(1,-1)"
       x="1046.5073"
       y="-401.01358"><tspan
         id="tspan252"
         sodipodi:role="line"
         y="-401.01358"
         x="1046.5073 1058.1765">90</tspan></text>
<g
       transform="matrix(1,0,0,-1,537.62877,858.57576)"
       id="g256"><path
         inkscape:connector-curvature="0"
         id="path258"
         style="fill:none;stroke:#000000;stroke-width:1;stroke-linecap:butt;stroke-linejoin:miter;stroke-miterlimit:10;stroke-dasharray:none;stroke-opacity:1"
         d="M 563.965,426.758 V 417.48" /></g><g
       transform="matrix(1,0,0,-1,537.62877,858.57576)"
       id="g260"><path
         inkscape:connector-curvature="0"
         id="path262"
         style="fill:none;stroke:#000000;stroke-width:1;stroke-linecap:butt;stroke-linejoin:miter;stroke-miterlimit:10;stroke-dasharray:none;stroke-opacity:1"
         d="m 563.965,75.684 v 9.277" /></g><text
       id="text266"
       style="font-variant:normal;font-weight:normal;font-size:21.33300781px;font-family:'Liberation Sans';-inkscape-font-specification:LiberationSans;writing-mode:lr-tb;fill:#000000;fill-opacity:1;fill-rule:nonzero;stroke:none"
       transform="scale(1,-1)"
       x="1086.9683"
       y="-401.01358"><tspan
         id="tspan264"
         sodipodi:role="line"
         y="-401.01358"
         x="1086.9683 1098.6375 1110.3066">100</tspan></text>
<g
       transform="matrix(1,0,0,-1,537.62877,858.57576)"
       id="g268"><path
         inkscape:connector-curvature="0"
         id="path270"
         style="fill:none;stroke:#000000;stroke-width:1;stroke-linecap:butt;stroke-linejoin:miter;stroke-miterlimit:10;stroke-dasharray:none;stroke-opacity:1"
         d="M 101.074,75.684 H 563.965 V 426.758 H 101.074 Z" /></g><text
       id="text274"
       style="font-variant:normal;font-weight:bold;font-size:26.66699219px;font-family:'DejaVu Serif';-inkscape-font-specification:DejaVuSerif-Bold;writing-mode:lr-tb;fill:#000000;fill-opacity:1;fill-rule:nonzero;stroke:none"
       transform="scale(1,-1)"
       x="541.24402"
       y="-363.53641"><tspan
         id="tspan272"
         sodipodi:role="line"
         y="-363.53641"
         x="541.24402 532.84387 551.6441">O C</tspan></text>
<text
       id="text278"
       style="font-variant:normal;font-weight:normal;font-size:21.33300781px;font-family:'Liberation Sans';-inkscape-font-specification:LiberationSans;writing-mode:lr-tb;fill:#000000;fill-opacity:1;fill-rule:nonzero;stroke:none"
       transform="matrix(0,1,1,0,0,0)"
       x="600.91168"
       y="563.08942"><tspan
         id="tspan276"
         y="563.08942"
         x="600.91168">T  (K) </tspan></text>
<text
       id="text282"
       style="font-variant:normal;font-weight:normal;font-size:21.33300781px;font-family:'Liberation Sans';-inkscape-font-specification:LiberationSans;writing-mode:lr-tb;fill:#000000;fill-opacity:1;fill-rule:nonzero;stroke:none"
       transform="scale(1,-1)"
       x="822.24988"
       y="-366.61514"><tspan
         id="tspan280"
         sodipodi:role="line"
         y="-366.61514"
         x="822.24988 842.04688 860.71326 867.71051 875.88104 881.70496 895.6781 910.84583">W%(*,SN)</tspan></text>
<text
       id="text288"
       style="font-variant:normal;font-weight:normal;font-size:13.33300781px;font-family:'Liberation Sans';-inkscape-font-specification:LiberationSans;writing-mode:lr-tb;fill:#000000;fill-opacity:1;fill-rule:nonzero;stroke:none"
       transform="scale(1,-1)"
       x="607.06238"
       y="-819.1073"><tspan
         id="tspan284"
         sodipodi:role="line"
         y="-819.1073"
         x="607.06238 617.16876 624.39526 631.62177 638.84827 648.23468 655.46118 658.34113 665.58093 672.80743 680.03394 687.26038 698.06012 705.28662 708.88654 716.11304 723.33954 730.57935 734.17926 737.77917 744.979 752.20551 759.43195 766.65845 773.88495 778.2182 785.44464 792.67114 797.00439 804.2309 811.4574 815.05731 818.65723 822.25714 831.64355 834.5368 838.13672 845.36322 848.96313 859.05621 868.44263 877.8291 886.49554 893.72205 903.81512 911.52161 915.12152 923.77466 931.0011 935.33435 943.98749 951.21399 954.8139 958.41382 967.08026 974.30676 985.13312 992.35962 998.86615 1002.4661 1005.826 1012.3192 1019.5457 1030.3721 1037.5985 1044.8251 1049.1582 1056.3848 1059.9846 1067.2112 1071.5443 1075.1443 1079.4775 1088.1306 1092.4639 1096.0637 1099.6637 1109.0502 1112.65 1121.3031 1128.9963">OpenCalphad 6.018 : 2021-12-01 : with GNUPLOT Pb-Sn, Samek, Temperatur (K), NIST </tspan><tspan
         id="tspan286"
         sodipodi:role="line"
         y="-804.15417"
         x="778.28552 786.21869 793.80518 800.77832 804.37823 811.57806 820.24457 827.81769 835.04419 842.27069 849.5105 856.737 863.96344 871.18994 874.78986 878.38977 887.77625 895.34937 902.57587 906.18909 909.789 918.44214 922.77539 931.42847 940.81494 945.14813 952.72131 961.37445">T=Y, P=100000, N=1, X(SN)=X,</tspan></text>
<text
       id="text292"
       style="font-variant:normal;font-weight:normal;font-size:16px;font-family:'Liberation Sans';-inkscape-font-specification:LiberationSans;writing-mode:lr-tb;fill:#000000;fill-opacity:1;fill-rule:nonzero;stroke:none"
       transform="scale(1,-1)"
       x="906.42957"
       y="-759.04059"><tspan
         id="tspan290"
         sodipodi:role="line"
         y="-759.04059"
         x="906.42957 921.51758 935.74158 941.06952 949.96558 954.39752 966.82953 978.38153 982.81354 994.36554 998.79755 1009.4536 1021.0056">W%(LIQUID,SN)</tspan></text>
<g
       transform="matrix(1,0,0,-1,537.62877,858.57576)"
       id="g294"><path
         inkscape:connector-curvature="0"
         id="path296"
         style="fill:none;stroke:#000000;stroke-width:2;stroke-linecap:butt;stroke-linejoin:miter;stroke-miterlimit:10;stroke-dasharray:none;stroke-opacity:1"
         d="m 497.559,93.262 h 45.41" /></g><g
       transform="matrix(1,0,0,-1,537.62877,858.57576)"
       id="g298"><path
         inkscape:connector-curvature="0"
         id="path300"
         style="fill:none;stroke:#000000;stroke-width:2;stroke-linecap:butt;stroke-linejoin:miter;stroke-miterlimit:10;stroke-dasharray:none;stroke-opacity:1"
         d="M 388.602,227.551 388.551,227.5 H 388.5 l -0.148,-0.102 -2.5,-1.25 -5.102,-2.449 -10.602,-5 -17.847,-7.801 -19.403,-7.796 -21.097,-7.801 -22.551,-7.801 -23.449,-7.801 -23.551,-7.801 -22.699,-7.75 -21.25,-7.796 -19.75,-7.801 -18.449,-7.801 -17.454,-7.801 -17.046,-7.801 -17.5,-7.796 -0.903,-0.403 h -0.051 l -0.046,-0.051 -1.204,-0.5 -2.347,-1 -0.949,-0.398 -0.903,-0.352 -0.75,-0.296" /></g><g
       transform="matrix(1,0,0,-1,537.62877,858.57576)"
       id="g302"><path
         inkscape:connector-curvature="0"
         id="path304"
         style="fill:none;stroke:#000000;stroke-width:2;stroke-linecap:butt;stroke-linejoin:miter;stroke-miterlimit:10;stroke-dasharray:none;stroke-opacity:1"
         d="m 388.648,227.551 0.102,-0.051 h 0.148 l 0.352,-0.102 6.75,-1.25 13.102,-2.449 24.847,-5 36.153,-7.801 34.046,-7.796 32.852,-7.801 1.949,-0.449 0.102,-0.051 h 0.097 l 2.051,-0.5 4.153,-1 8.296,-2 3.204,-0.801 3.25,-0.75 3.199,-0.801 0.648,-0.148" /></g><text
       id="text308"
       style="font-variant:normal;font-weight:normal;font-size:16px;font-family:'Liberation Sans';-inkscape-font-specification:LiberationSans;writing-mode:lr-tb;fill:#000000;fill-opacity:1;fill-rule:nonzero;stroke:none"
       transform="scale(1,-1)"
       x="903.75769"
       y="-742.09137"><tspan
         id="tspan306"
         sodipodi:role="line"
         y="-742.09137"
         x="903.75769 918.8457 933.0697 938.39771 949.05365 960.60565 969.48566 974.81366 985.46967 994.36566 998.79767 1009.4537 1021.0057">W%(BCT-A5,SN)</tspan></text>
<g
       transform="matrix(1,0,0,-1,537.62877,858.57576)"
       id="g310"><path
         inkscape:connector-curvature="0"
         id="path312"
         style="fill:none;stroke:#4169e1;stroke-width:2;stroke-linecap:butt;stroke-linejoin:miter;stroke-miterlimit:10;stroke-dasharray:none;stroke-opacity:1"
         d="m 497.559,110.352 h 45.41" /></g><g
       transform="matrix(1,0,0,-1,537.62877,858.57576)"
       id="g314"><path
         inkscape:connector-curvature="0"
         id="path316"
         style="fill:none;stroke:#4169e1;stroke-width:2;stroke-linecap:butt;stroke-linejoin:miter;stroke-miterlimit:10;stroke-dasharray:none;stroke-opacity:1"
         d="m 563.949,426.602 v -0.051 l 0.016,-0.281 v -16.114 l -0.113,-8.008 -0.051,-7.75 -0.102,-7.796 -0.097,-7.801 -0.102,-7.801 -0.398,-15.602 -0.25,-7.796 -0.352,-7.801 -0.398,-7.801 -0.454,-7.75 -0.546,-7.801 -0.653,-7.801 -0.699,-7.796 -0.852,-7.801 -0.898,-7.801 -1.051,-7.801 -1.097,-7.801 -1.25,-7.796 -1.301,-7.75 -1.403,-7.801 -1.5,-7.801 -1.546,-7.801 -0.653,-3.148" /></g><g
       transform="matrix(1,0,0,-1,537.62877,858.57576)"
       id="g318"><path
         inkscape:connector-curvature="0"
         id="path320"
         style="fill:none;stroke:#4169e1;stroke-width:2;stroke-linecap:butt;stroke-linejoin:miter;stroke-miterlimit:10;stroke-dasharray:none;stroke-opacity:1"
         d="m 188.5,227.551 -0.023,-0.012 H 548.34 388.672" /></g><g
       transform="matrix(1,0,0,-1,537.62877,858.57576)"
       id="g322"><path
         inkscape:connector-curvature="0"
         id="path324"
         style="fill:none;stroke:#4169e1;stroke-width:2;stroke-linecap:butt;stroke-linejoin:miter;stroke-miterlimit:10;stroke-dasharray:none;stroke-opacity:1"
         d="m 548.199,227.551 v -0.153 l 0.199,-1.25 0.403,-2.449 1.097,-5 2.403,-7.801 3.25,-7.796 4.199,-7.801 0.301,-0.449 v -0.051 l 0.301,-0.5 0.648,-1 1.25,-2 0.551,-0.801 0.5,-0.75 0.551,-0.801 0.097,-0.148" /></g><text
       id="text328"
       style="font-variant:normal;font-weight:normal;font-size:16px;font-family:'Liberation Sans';-inkscape-font-specification:LiberationSans;writing-mode:lr-tb;fill:#000000;fill-opacity:1;fill-rule:nonzero;stroke:none"
       transform="scale(1,-1)"
       x="901.99207"
       y="-725.14215"><tspan
         id="tspan326"
         sodipodi:role="line"
         y="-725.14215"
         x="901.99207 917.08008 931.30408 936.63202 946.39203 957.94403 969.49603 974.82404 985.48004 994.37604 998.80804 1009.4641 1021.0161">W%(FCC-A1,SN)</tspan></text>
<g
       transform="matrix(1,0,0,-1,537.62877,858.57576)"
       id="g330"><path
         inkscape:connector-curvature="0"
         id="path332"
         style="fill:none;stroke:#00c000;stroke-width:2;stroke-linecap:butt;stroke-linejoin:miter;stroke-miterlimit:10;stroke-dasharray:none;stroke-opacity:1"
         d="m 497.559,127.441 h 45.41" /></g><g
       transform="matrix(1,0,0,-1,537.62877,858.57576)"
       id="g334"><path
         inkscape:connector-curvature="0"
         id="path336"
         style="fill:none;stroke:#00c000;stroke-width:2;stroke-linecap:butt;stroke-linejoin:miter;stroke-miterlimit:10;stroke-dasharray:none;stroke-opacity:1"
         d="m 101.5,426.602 v -0.051 l 0.062,-0.281 v -0.977 l 0.04,-2.543 0.148,-5 0.301,-7.801 0.398,-7.801 0.5,-7.75 0.653,-7.796 0.699,-7.801 0.898,-7.801 1.051,-7.801 1.199,-7.801 1.449,-7.796 1.653,-7.801 1.898,-7.801 2.199,-7.75 2.551,-7.801 2.903,-7.801 3.25,-7.796 3.796,-7.801 4.25,-7.801 4.852,-7.801 5.551,-7.801 6.347,-7.796 7.204,-7.75 8.199,-7.801 9.398,-7.801 10.75,-7.801 4.801,-3.148" /></g><g
       transform="matrix(1,0,0,-1,537.62877,858.57576)"
       id="g338"><path
         inkscape:connector-curvature="0"
         id="path340"
         style="fill:none;stroke:#00c000;stroke-width:2;stroke-linecap:butt;stroke-linejoin:miter;stroke-miterlimit:10;stroke-dasharray:none;stroke-opacity:1"
         d="M 188.5,227.551 V 227.5 h -0.051 v -0.102 l -0.648,-1.25 -1.25,-2.449 -2.449,-5 -3.75,-7.801 -3.704,-7.796 -3.796,-7.801 -4,-7.801 -4.25,-7.801 -4.653,-7.801 -5.148,-7.75 -5.699,-7.796 -6.352,-7.801 -7.199,-7.801 -8.153,-7.801 -9.5,-7.801 -11.546,-7.796 -0.704,-0.403 h -0.046 v -0.051 l -0.903,-0.5 -1.75,-1 -0.75,-0.398 -0.648,-0.352 -0.602,-0.296" /></g><g
       transform="matrix(1,0,0,-1,537.62877,858.57576)"
       id="g342"><path
         inkscape:connector-curvature="0"
         id="path344"
         style="fill:none;stroke:#000000;stroke-width:1;stroke-linecap:butt;stroke-linejoin:miter;stroke-miterlimit:10;stroke-dasharray:none;stroke-opacity:1"
         d="M 101.074,75.684 H 563.965 V 426.758 H 101.074 Z" /></g><text
       xml:space="preserve"
       style="font-style:normal;font-weight:normal;font-size:30px;line-height:1.25;font-family:sans-serif;letter-spacing:0px;word-spacing:0px;fill:#0000ff;fill-opacity:1;stroke:none;stroke-width:0.75"
       x="898.79211"
       y="-685.81207"
       id="text4185"
       transform="scale(1,-1)"><tspan
         sodipodi:role="line"
         id="tspan4183"
         x="898.79211"
         y="-685.81207"
         style="font-size:18px;fill:#0000ff;stroke-width:0.75">Liquid</tspan></text>
<text
       xml:space="preserve"
       style="font-style:normal;font-weight:normal;font-size:30px;line-height:1.25;font-family:sans-serif;letter-spacing:0px;word-spacing:0px;fill:#0000ff;fill-opacity:1;stroke:none;stroke-width:0.75"
       x="668.47333"
       y="-638.08582"
       id="text4185-3"
       transform="scale(1,-1)"><tspan
         sodipodi:role="line"
         id="tspan4183-6"
         x="668.47333"
         y="-638.08582"
         style="font-size:24px;fill:#0000ff;stroke-width:0.75">α</tspan></text>
<text
       xml:space="preserve"
       style="font-style:normal;font-weight:normal;font-size:30px;line-height:1.25;font-family:sans-serif;letter-spacing:0px;word-spacing:0px;fill:#0000ff;fill-opacity:1;stroke:none;stroke-width:0.75"
       x="1103.8502"
       y="-621.55267"
       id="text4185-3-7"
       transform="scale(1,-1)"><tspan
         sodipodi:role="line"
         id="tspan4183-6-5"
         x="1103.8502"
         y="-621.55267"
         style="font-size:24px;fill:#0000ff;stroke-width:0.75">β</tspan></text>
<text
       xml:space="preserve"
       style="font-style:normal;font-weight:normal;font-size:30px;line-height:1.25;font-family:sans-serif;letter-spacing:0px;word-spacing:0px;fill:#0000ff;fill-opacity:1;stroke:none;stroke-width:0.75"
       x="845.61792"
       y="-517.38062"
       id="text4185-35"
       transform="scale(1,-1)"><tspan
         sodipodi:role="line"
         id="tspan4183-62"
         x="845.61792"
         y="-517.38062"
         style="font-size:18px;fill:#0000ff;stroke-width:0.75">α + β</tspan></text>
<text
       xml:space="preserve"
       style="font-style:normal;font-weight:normal;font-size:30px;line-height:1.25;font-family:sans-serif;letter-spacing:0px;word-spacing:0px;fill:#0000ff;fill-opacity:1;stroke:none;stroke-width:0.75"
       x="738.93237"
       y="-653.13776"
       id="text4185-35-9"
       transform="scale(1,-1)"><tspan
         sodipodi:role="line"
         id="tspan4183-62-1"
         x="738.93237"
         y="-653.13776"
         style="font-size:18px;fill:#0000ff;stroke-width:0.75">α + Liq.</tspan></text>
<text
       xml:space="preserve"
       style="font-style:normal;font-weight:normal;font-size:30px;line-height:1.25;font-family:sans-serif;letter-spacing:0px;word-spacing:0px;fill:#0000ff;fill-opacity:1;stroke:none;stroke-width:0.75"
       x="1020.8163"
       y="-638.32892"
       id="text4185-35-9-2"
       transform="scale(1,-1)"><tspan
         sodipodi:role="line"
         id="tspan4183-62-1-7"
         x="1020.8163"
         y="-638.32892"
         style="font-size:16px;fill:#0000ff;stroke-width:0.75">Liq. + β</tspan></text>
</g></svg>